<svg width="49" height="49" viewBox="0 0 49 49" fill="none" xmlns="http://www.w3.org/2000/svg">
<path d="M17.2929 17.2929C17.58 17.0062 17.9692 16.8451 18.375 16.8451C18.7808 16.8451 19.17 17.0062 19.4571 17.2929L24.5 22.3358L29.5429 17.2929C29.6831 17.1425 29.8521 17.0218 30.04 16.9381C30.2278 16.8544 30.4306 16.8094 30.6362 16.8058C30.8418 16.8022 31.046 16.84 31.2367 16.917C31.4273 16.994 31.6005 17.1086 31.7459 17.2541C31.8913 17.3995 32.006 17.5727 32.083 17.7633C32.16 17.954 32.1978 18.1582 32.1942 18.3638C32.1906 18.5694 32.1456 18.7722 32.0619 18.96C31.9782 19.1479 31.8575 19.3169 31.7071 19.4571L26.6642 24.5L31.7071 29.5429C31.9776 29.8332 32.1248 30.2171 32.1178 30.6138C32.1108 31.0105 31.9501 31.389 31.6695 31.6696C31.389 31.9501 31.0105 32.1108 30.6138 32.1178C30.2171 32.1248 29.8332 31.9776 29.5429 31.7071L24.5 26.6642L19.4571 31.7071C19.3169 31.8575 19.1478 31.9782 18.96 32.0619C18.7722 32.1456 18.5694 32.1906 18.3638 32.1942C18.1582 32.1978 17.954 32.16 17.7633 32.083C17.5726 32.006 17.3994 31.8914 17.254 31.746C17.1086 31.6006 16.994 31.4273 16.917 31.2367C16.84 31.046 16.8022 30.8418 16.8058 30.6362C16.8094 30.4306 16.8544 30.2278 16.9381 30.04C17.0218 29.8522 17.1425 29.6831 17.2929 29.5429L22.3358 24.5L17.2929 19.4571C17.0062 19.17 16.8451 18.7808 16.8451 18.375C16.8451 17.9692 17.0062 17.58 17.2929 17.2929Z" fill="#A1A1A1"/>
</svg>
