<svg width="30" height="17" viewBox="0 0 30 17" fill="none" xmlns="http://www.w3.org/2000/svg">
<path fill-rule="evenodd" clip-rule="evenodd" d="M0 8.02083C0 5.89358 0.84505 3.85345 2.34925 2.34925C3.85345 0.845049 5.89358 0 8.02083 0H11.3021C11.6889 0 12.0598 0.153646 12.3333 0.427136C12.6068 0.700627 12.7604 1.07156 12.7604 1.45833C12.7604 1.84511 12.6068 2.21604 12.3333 2.48953C12.0598 2.76302 11.6889 2.91667 11.3021 2.91667H8.02083C6.66712 2.91667 5.36886 3.45443 4.41164 4.41164C3.45443 5.36886 2.91667 6.66712 2.91667 8.02083C2.91667 9.37454 3.45443 10.6728 4.41164 11.63C5.36886 12.5872 6.66712 13.125 8.02083 13.125H11.3021C11.6889 13.125 12.0598 13.2786 12.3333 13.5521C12.6068 13.8256 12.7604 14.1966 12.7604 14.5833C12.7604 14.9701 12.6068 15.341 12.3333 15.6145C12.0598 15.888 11.6889 16.0417 11.3021 16.0417H8.02083C5.89358 16.0417 3.85345 15.1966 2.34925 13.6924C0.84505 12.1882 0 10.1481 0 8.02083ZM16.4062 1.45833C16.4062 1.07156 16.5599 0.700627 16.8334 0.427136C17.1069 0.153646 17.4778 0 17.8646 0H21.1458C23.2731 0 25.3132 0.845049 26.8174 2.34925C28.3216 3.85345 29.1667 5.89358 29.1667 8.02083C29.1667 10.1481 28.3216 12.1882 26.8174 13.6924C25.3132 15.1966 23.2731 16.0417 21.1458 16.0417H17.8646C17.4778 16.0417 17.1069 15.888 16.8334 15.6145C16.5599 15.341 16.4062 14.9701 16.4062 14.5833C16.4062 14.1966 16.5599 13.8256 16.8334 13.5521C17.1069 13.2786 17.4778 13.125 17.8646 13.125H21.1458C22.4995 13.125 23.7978 12.5872 24.755 11.63C25.7122 10.6728 26.25 9.37454 26.25 8.02083C26.25 6.66712 25.7122 5.36886 24.755 4.41164C23.7978 3.45443 22.4995 2.91667 21.1458 2.91667H17.8646C17.4778 2.91667 17.1069 2.76302 16.8334 2.48953C16.5599 2.21604 16.4062 1.84511 16.4062 1.45833Z" fill="#FAFFF2"/>
<path fill-rule="evenodd" clip-rule="evenodd" d="M7.875 8.10836C7.875 7.72158 8.02864 7.35065 8.30214 7.07716C8.57563 6.80367 8.94656 6.65002 9.33333 6.65002H19.8333C20.2201 6.65002 20.591 6.80367 20.8645 7.07716C21.138 7.35065 21.2917 7.72158 21.2917 8.10836C21.2917 8.49513 21.138 8.86607 20.8645 9.13956C20.591 9.41305 20.2201 9.56669 19.8333 9.56669H9.33333C8.94656 9.56669 8.57563 9.41305 8.30214 9.13956C8.02864 8.86607 7.875 8.49513 7.875 8.10836Z" fill="#FAFFF2"/>
</svg>
