<svg width="39" height="38" viewBox="0 0 39 38" fill="none" xmlns="http://www.w3.org/2000/svg">
<g clip-path="url(#clip0_28_286)">
<path d="M35.9026 0H2.33198C1.04406 0 0 1.03766 0 2.31767V35.6823C0 36.9623 1.04406 38 2.33198 38H35.9026C37.1905 38 38.2346 36.9623 38.2346 35.6823V2.31767C38.2346 1.03766 37.1905 0 35.9026 0Z" fill="#1F1F1F"/>
<path d="M8.76047 14.2555C10.0435 14.2555 11.0836 13.2218 11.0836 11.9467C11.0836 10.6715 10.0435 9.63783 8.76047 9.63783C7.47746 9.63783 6.43738 10.6715 6.43738 11.9467C6.43738 13.2218 7.47746 14.2555 8.76047 14.2555Z" stroke="white" stroke-miterlimit="10"/>
<path d="M26.8984 10.1564H31.8836V15.1097" stroke="white" stroke-miterlimit="10"/>
<path d="M5.80261 25.1954L8.75408 22.2633L11.7043 25.1954" stroke="white" stroke-miterlimit="10"/>
<path d="M5.80261 28.4921L8.75408 25.5587L11.7043 28.4921" stroke="white" stroke-miterlimit="10"/>
<path d="M26.8984 23.5464H31.8836V28.4997" stroke="white" stroke-miterlimit="10"/>
<path d="M16.2858 26.8482H22.7752" stroke="white" stroke-miterlimit="10"/>
<path d="M19.5305 23.5275V26.8658" stroke="white" stroke-miterlimit="10"/>
<path d="M18.3752 8.78999V15.3405" stroke="white" stroke-miterlimit="10"/>
<path d="M21.3483 10.8339H18.3752" stroke="white" stroke-miterlimit="10"/>
<path d="M21.3483 13.2449H18.3752" stroke="white" stroke-miterlimit="10"/>
</g>
<defs>
<clipPath id="clip0_28_286">
<rect width="38.2346" height="38" fill="white"/>
</clipPath>
</defs>
</svg>
